# xmcd CD database file
#
# Track frame offsets:
#	150
#	12417
#	24021
#	38126
#	49085
#	61826
#	75012
#	86235
#	97568
#	109181
#	121487
#	134455
#	146231
#	156751
#	169317
#	179215
#	191490
#	202911
#	217372
#	227710
#
# Disc length: 3161 seconds
#
# Revision: 0
# Processed by: cddbd v1.5.2PL0 Copyright (c) Steve Scherf et al.
# Submitted via: CDex 1.70beta2
#
DISCID=110c5714
DTITLE=CG - Country Gold - D1
DYEAR=1900
DGENRE=Country
TTITLE0=You're Cheatin' Heart - Hank Williams
TTITLE1=You Belong To Me - Jim Reeves
TTITLE2=Will The Circle Go Unbroken - The Carter Family
TTITLE3=Singin' The Blues - Marty Robbins
TTITLE4=I'm Movin' On - Hank Snow
TTITLE5=Hey, Good Lookin' - Hank Williams
TTITLE6=My Happyness - Jim Reeves
TTITLE7=A Dear John Letter - Jean Sheppard and Ferlin Husky
TTITLE8=I Really Don't Want To Know - Eddy Arnold
TTITLE9=Cold, Cold Heart - Hank Williams
TTITLE10=Keep On The Sunny Side - The Carter Family
TTITLE11=Sixteen Tons - Tennessee Ernie Ford
TTITLE12=Your Old Love Letters - Jim Reeves
TTITLE13=A Satisfied Life - Hank Thompson
TTITLE14=Honky Tonk Blues - Hank Williams
TTITLE15=Teh Wild Side of Life - Hank Thompson
TTITLE16=It Wasn't God Who Made Honky Tonk Angles - Kitty Wells
TTITLE17=Wild Wood Flower - The Carter Family
TTITLE18=Why, Baby, Why - George Jones
TTITLE19=Waiting For A Train - Jim Reeves
EXTD=
EXTT0=
EXTT1=
EXTT2=
EXTT3=
EXTT4=
EXTT5=
EXTT6=
EXTT7=
EXTT8=
EXTT9=
EXTT10=
EXTT11=
EXTT12=
EXTT13=
EXTT14=
EXTT15=
EXTT16=
EXTT17=
EXTT18=
EXTT19=
PLAYORDER=
